<?xml version="1.0" standalone="no"?>
<!DOCTYPE svg PUBLIC "-//W3C//DTD SVG 20010904//EN"
 "http://www.w3.org/TR/2001/REC-SVG-20010904/DTD/svg10.dtd">
<svg version="1.0" xmlns="http://www.w3.org/2000/svg"
 width="300.000000pt" height="144.000000pt" viewBox="0 0 300.000000 144.000000"
 preserveAspectRatio="xMidYMid meet">
<metadata>
Created by potrace 1.10, written by Peter Selinger 2001-2011
</metadata>
<g transform="translate(0.000000,144.000000) scale(0.100000,-0.100000)"
fill="#000000" stroke="none">
<path d="M835 1430 c4 -6 10 -8 15 -5 5 3 12 0 16 -6 4 -8 3 -9 -4 -5 -7 4
-12 2 -12 -5 0 -20 -31 -48 -46 -42 -8 3 -14 0 -14 -7 0 -6 -4 -8 -10 -5 -5 3
-10 -1 -10 -9 0 -8 -6 -19 -13 -23 -8 -4 -24 -24 -38 -43 -13 -19 -28 -38 -34
-42 -5 -4 -7 -10 -3 -13 3 -4 32 26 63 65 31 39 59 69 62 66 3 -3 -8 -22 -24
-43 -51 -64 -133 -196 -133 -212 0 -9 19 16 43 55 49 81 103 157 165 232 l44
52 -36 0 c-23 0 -35 -4 -31 -10z"/>
<path d="M1135 1414 c-30 -27 -46 -25 -24 3 13 17 13 17 -6 3 -11 -7 -25 -20
-32 -28 -13 -15 -54 -24 -115 -25 -21 -1 -38 -4 -38 -8 0 -15 51 -15 110 -1
48 12 60 18 55 31 -4 13 -2 13 9 -1 12 -17 14 -17 31 2 10 11 23 20 28 20 6 0
0 -11 -13 -25 -13 -14 -29 -24 -36 -21 -15 6 -34 -13 -28 -28 2 -6 -5 -12 -17
-13 -15 -1 -18 1 -10 11 8 9 7 13 -4 13 -8 0 -12 -4 -10 -8 3 -3 -4 -9 -14
-12 -11 -2 -25 -15 -31 -28 l-13 -24 27 25 c23 21 29 22 36 10 12 -19 6 -36
-11 -32 -11 3 -11 1 -2 -9 18 -18 48 8 32 28 -9 11 -9 12 4 7 9 -3 22 2 31 13
48 54 77 93 71 93 -4 0 -2 7 5 15 21 25 -5 17 -35 -11z m-31 -75 c-3 -5 -10
-7 -15 -3 -5 3 -7 10 -3 15 3 5 10 7 15 3 5 -3 7 -10 3 -15z"/>
<path d="M1212 1432 c-15 -10 -5 -42 13 -42 8 0 17 5 20 11 4 6 1 9 -7 7 -7
-2 -15 2 -16 7 -5 16 30 19 39 3 7 -10 9 -9 9 5 0 18 -34 24 -58 9z"/>
<path d="M1381 1426 c-8 -10 -9 -16 -1 -21 12 -7 14 -26 3 -24 -20 3 -24 -2
-14 -15 9 -11 9 -16 0 -21 -8 -6 -8 -9 1 -15 7 -5 2 -7 -14 -7 -26 0 -26 0
-11 23 19 29 5 32 -19 5 -19 -21 -14 -41 10 -41 10 0 12 -5 8 -12 -6 -10 -5
-10 8 -1 8 7 18 10 21 6 4 -3 7 -1 7 6 0 7 6 11 14 8 14 -6 73 32 87 55 14 22
-11 38 -52 34 -21 -2 -42 1 -46 7 -4 6 0 8 10 4 10 -3 17 -2 17 3 0 16 -18 20
-29 6z m74 -52 c-11 -8 -28 -21 -38 -30 -24 -20 -34 -10 -18 19 8 15 22 23 44
24 30 2 31 1 12 -13z"/>
<path d="M2585 1418 c20 -28 42 -39 30 -15 -4 6 1 3 9 -7 9 -11 16 -14 16 -8
0 7 5 12 12 12 6 0 8 -3 5 -7 -4 -3 -2 -12 4 -19 9 -10 5 -11 -18 -5 -15 4
-34 6 -42 3 -8 -2 -11 0 -8 5 4 6 -2 18 -12 27 -16 14 -20 15 -30 2 -10 -12
-9 -14 8 -9 12 3 21 1 21 -6 0 -6 -3 -10 -7 -10 -23 4 -40 -3 -50 -21 -11 -17
-10 -18 4 -13 12 5 15 2 11 -8 -4 -10 1 -15 14 -16 19 -2 19 -1 2 18 -29 32
-7 34 27 1 30 -29 30 -30 7 -31 -43 -1 -57 -4 -52 -13 3 -4 16 -6 29 -4 22 4
23 2 12 -14 -8 -14 -14 -16 -20 -7 -6 8 -7 4 -4 -10 3 -13 0 -23 -6 -23 -6 0
-8 -3 -5 -6 11 -10 46 19 40 34 -3 10 0 13 9 10 8 -3 13 -12 11 -19 -1 -9 3
-8 11 4 16 19 32 24 21 5 -4 -7 -3 -8 5 -4 17 11 2 28 -20 21 -10 -4 -19 -2
-19 4 0 5 9 13 21 16 l21 7 -21 14 c-20 14 -19 50 1 38 5 -3 7 -13 4 -21 -4
-9 -1 -13 6 -10 7 2 12 9 11 15 -2 8 5 8 20 3 12 -5 21 -14 20 -20 -2 -6 1
-11 7 -11 13 0 13 27 -1 35 -6 4 -8 13 -5 21 3 8 1 14 -5 14 -6 0 -7 5 -4 10
3 6 -1 10 -10 10 -9 0 -14 4 -10 10 10 17 34 -1 40 -31 4 -16 10 -29 15 -29
11 0 21 45 15 62 -7 19 -85 18 -85 0 0 -15 -34 -8 -60 12 -8 6 -5 -1 5 -16z
m135 -8 c0 -5 -5 -10 -11 -10 -5 0 -7 5 -4 10 3 6 8 10 11 10 2 0 4 -4 4 -10z"/>
<path d="M2740 1404 c0 -17 -7 -37 -15 -44 -9 -7 -14 -19 -11 -26 8 -20 -25
-26 -45 -8 -11 10 -19 15 -20 13 0 -2 -2 -12 -4 -21 -2 -9 3 -22 11 -29 8 -6
12 -15 9 -19 -3 -4 2 -11 11 -14 16 -6 11 -26 -7 -26 -6 0 -7 5 -3 12 4 7 3 8
-4 4 -15 -9 -7 -28 18 -44 12 -7 21 -8 25 -2 3 6 -1 10 -9 10 -18 0 -21 16 -6
25 6 3 10 1 10 -6 0 -7 3 -9 7 -6 3 4 -2 16 -12 27 -17 19 -15 50 5 50 12 0
14 -16 3 -23 -5 -2 -2 -2 5 -1 6 2 12 -2 12 -8 0 -7 5 -6 15 2 8 7 15 8 15 3
0 -5 6 -10 13 -10 8 0 14 6 14 13 0 7 -7 10 -16 6 -13 -4 -13 -2 2 15 21 24 6
43 -18 23 -19 -16 -19 -11 1 56 8 30 20 54 25 54 6 0 7 -5 3 -12 -4 -7 -3 -8
5 -4 16 10 4 25 -19 23 -15 -1 -20 -9 -20 -33z m20 -93 c0 -15 -33 -22 -44
-10 -8 9 -7 10 6 6 10 -3 20 -2 23 3 8 12 15 13 15 1z"/>
<path d="M2827 1425 c3 -9 2 -15 -3 -14 -20 3 -35 -2 -30 -10 9 -14 56 0 67
20 6 12 6 19 0 19 -5 0 -12 -6 -14 -12 -4 -10 -6 -10 -6 0 -1 6 -5 12 -11 12
-5 0 -7 -7 -3 -15z"/>
<path d="M2903 1418 c-8 -9 -22 -14 -30 -11 -12 5 -14 1 -9 -14 8 -24 -21 -41
-38 -22 -8 9 -7 10 6 6 10 -3 20 -2 23 3 10 16 -31 12 -44 -4 -9 -11 -6 -15
14 -20 14 -4 23 -11 20 -17 -4 -6 -11 -6 -18 -1 -7 5 -21 12 -31 16 -16 5 -17
4 -6 -9 7 -8 16 -13 20 -10 4 3 13 -2 20 -10 6 -7 18 -11 26 -8 9 3 14 -1 14
-12 0 -11 -5 -15 -15 -11 -8 3 -15 1 -15 -5 0 -6 -4 -7 -10 -4 -6 3 -7 -1 -4
-9 3 -9 1 -16 -5 -16 -6 0 -11 -5 -11 -11 0 -5 5 -7 10 -4 6 3 10 2 10 -4 0
-5 14 -17 31 -25 24 -12 35 -13 45 -5 8 6 12 15 9 19 -8 12 6 41 16 34 5 -3 9
-1 9 5 0 5 -6 12 -12 14 -8 3 -6 6 5 6 10 1 17 -6 17 -16 0 -10 7 -27 15 -37
8 -11 13 -28 10 -37 -3 -9 0 -19 7 -22 10 -3 14 8 15 39 1 25 -2 44 -8 44 -6
0 -8 -9 -4 -22 7 -22 7 -22 -8 -3 -14 18 -13 21 4 33 24 17 28 102 5 102 -8 0
-17 6 -19 13 -4 9 -8 9 -15 -2 -8 -11 -10 -8 -9 12 2 22 5 25 30 20 20 -4 27
-2 27 10 0 21 -76 18 -97 -5z m27 -47 c0 -34 -16 -49 -33 -32 -9 9 -8 11 5 6
14 -6 16 -1 13 24 -2 17 0 31 5 31 6 0 10 -13 10 -29z m-30 4 c0 -8 -4 -15
-10 -15 -5 0 -7 7 -4 15 4 8 8 15 10 15 2 0 4 -7 4 -15z m85 -24 c3 -5 1 -12
-5 -16 -14 -9 -13 -42 3 -48 9 -4 9 -6 0 -6 -7 -1 -17 9 -24 20 -6 12 -14 17
-18 12 -3 -6 -16 -13 -28 -17 -18 -6 -22 -4 -17 8 3 9 9 14 13 12 10 -7 62 29
54 37 -3 4 -1 7 5 7 6 0 13 -4 17 -9z m-105 -11 c0 -5 -2 -10 -4 -10 -3 0 -8
5 -11 10 -3 6 -1 10 4 10 6 0 11 -4 11 -10z m8 -68 c7 7 14 9 17 6 3 -3 -1
-13 -10 -22 -9 -9 -12 -16 -6 -16 6 0 11 -8 11 -17 -1 -15 -4 -15 -20 5 -10
13 -22 22 -26 20 -4 -2 -8 5 -10 14 -2 14 2 16 15 8 12 -6 22 -5 29 2z"/>
<path d="M1021 1421 c-8 -5 -28 -7 -45 -5 -23 2 -27 1 -16 -6 8 -5 24 -10 35
-9 24 0 78 28 55 28 -8 1 -21 -3 -29 -8z"/>
<path d="M1438 1423 c7 -3 16 -2 19 1 4 3 -2 6 -13 5 -11 0 -14 -3 -6 -6z"/>
<path d="M820 1400 c-8 -5 -12 -12 -9 -15 4 -3 12 1 19 10 14 17 11 19 -10 5z"/>
<path d="M1557 1395 c5 -14 3 -17 -10 -12 -9 3 -17 2 -17 -3 0 -12 20 -13 38
-1 10 6 10 10 -3 21 -13 11 -14 10 -8 -5z"/>
<path d="M1336 1388 c3 -5 10 -6 15 -3 13 9 11 12 -6 12 -8 0 -12 -4 -9 -9z"/>
<path d="M1270 1360 c0 -11 2 -20 4 -20 2 0 6 9 9 20 3 11 1 20 -4 20 -5 0 -9
-9 -9 -20z"/>
<path d="M898 1348 c-4 -9 -4 -19 -1 -22 11 -10 41 -7 49 6 5 7 0 9 -14 6 -14
-4 -22 -1 -24 11 -3 15 -4 15 -10 -1z"/>
<path d="M1150 1349 c0 -5 5 -7 10 -4 6 3 10 8 10 11 0 2 -4 4 -10 4 -5 0 -10
-5 -10 -11z"/>
<path d="M2348 1309 c-18 -23 -42 -45 -53 -50 -18 -7 -18 -8 -2 -8 10 -1 15
-5 12 -11 -3 -5 -1 -10 5 -10 7 0 10 7 6 15 -3 8 -1 15 4 15 5 0 16 12 25 28
13 22 15 23 10 5 -5 -18 -3 -22 9 -17 11 4 16 1 16 -10 0 -9 5 -16 11 -16 5 0
7 5 4 11 -4 5 0 18 7 27 25 29 29 40 17 48 -7 4 -9 3 -5 -4 3 -6 -3 -13 -13
-17 -13 -4 -18 -12 -14 -23 5 -13 3 -15 -7 -5 -14 13 -6 48 10 38 5 -3 10 -2
10 4 0 26 -22 18 -52 -20z"/>
<path d="M959 1312 c-38 -24 -73 -63 -86 -94 -10 -23 -9 -26 5 -23 9 2 19 4
22 5 3 1 9 2 13 1 5 -1 6 3 2 9 -3 5 1 10 9 10 8 0 17 4 20 9 10 16 -22 6 -45
-15 -21 -18 -22 -18 -16 -1 4 10 7 23 7 28 0 5 6 9 13 9 7 0 31 18 52 40 43
44 44 49 4 22z"/>
<path d="M1088 1268 c-10 -10 -14 -18 -9 -18 10 0 36 29 30 34 -2 1 -12 -6
-21 -16z"/>
<path d="M1001 1273 c-1 -6 -8 -18 -16 -26 -12 -12 -12 -16 -1 -20 25 -10 41
9 29 35 -7 13 -12 18 -12 11z"/>
<path d="M2340 1255 c0 -8 7 -15 15 -15 8 0 15 4 15 9 0 5 -7 11 -15 15 -9 3
-15 0 -15 -9z"/>
<path d="M1250 1250 c0 -5 7 -10 15 -10 8 0 15 5 15 10 0 6 -7 10 -15 10 -8 0
-15 -4 -15 -10z"/>
<path d="M1200 1232 c-13 -14 -12 -15 3 -9 10 4 17 2 17 -5 0 -6 3 -9 6 -5 3
3 2 12 -3 20 -7 13 -10 13 -23 -1z"/>
<path d="M2184 1238 c-12 -19 -14 -37 -4 -43 4 -3 10 2 14 10 3 8 10 15 16 15
6 0 8 -4 5 -10 -3 -6 1 -7 10 -3 12 4 13 8 5 13 -6 4 -11 11 -10 16 2 15 -27
16 -36 2z m26 -8 c-20 -13 -33 -13 -25 0 3 6 14 10 23 10 15 0 15 -2 2 -10z"/>
<path d="M2920 1240 c0 -13 18 -22 24 -11 3 5 -1 11 -9 15 -8 3 -15 1 -15 -4z"/>
<path d="M1090 1229 c0 -5 5 -7 10 -4 6 3 10 8 10 11 0 2 -4 4 -10 4 -5 0 -10
-5 -10 -11z"/>
<path d="M2340 1228 c-19 -5 -44 -9 -55 -9 -14 0 -16 -2 -7 -8 17 -10 17 -21
0 -33 -11 -8 -11 -9 0 -6 8 2 13 7 12 12 -2 15 63 37 90 31 17 -4 21 -3 11 3
-11 8 -11 10 0 15 24 9 -12 6 -51 -5z"/>
<path d="M843 1215 c-3 -9 -3 -18 -1 -21 3 -3 8 4 11 16 6 23 -1 27 -10 5z"/>
<path d="M2417 1209 c4 -13 8 -18 11 -10 2 7 -1 18 -6 23 -8 8 -9 4 -5 -13z"/>
<path d="M920 1185 c-19 -19 -30 -35 -24 -35 15 1 40 23 47 44 5 11 13 16 23
12 8 -3 12 -2 9 4 -10 16 -19 12 -55 -25z"/>
<path d="M1593 1212 c-14 -2 -20 -8 -16 -18 3 -8 1 -14 -4 -14 -5 0 -9 -9 -10
-21 -1 -11 -11 -29 -22 -39 -30 -25 -26 -34 6 -13 19 13 25 14 18 4 -6 -11 -4
-13 8 -8 10 3 17 2 17 -4 0 -5 -6 -12 -14 -15 -9 -3 -12 -12 -9 -22 5 -11 2
-14 -11 -9 -10 4 -19 1 -22 -8 -4 -8 -14 -15 -23 -15 -13 1 -13 3 3 15 15 11
17 18 9 26 -8 8 -13 5 -18 -10 -3 -12 -13 -21 -21 -21 -8 0 -14 -5 -14 -11 0
-6 7 -9 15 -5 19 7 21 -34 3 -54 -11 -12 -10 -12 5 -1 9 7 17 19 17 26 0 6 9
20 20 30 11 10 20 13 20 8 0 -6 -7 -16 -15 -23 -8 -7 -15 -18 -15 -25 0 -7 -7
-18 -15 -25 -8 -7 -15 -17 -15 -23 0 -5 10 3 22 19 12 16 23 31 25 34 2 2 9
-2 14 -10 9 -13 10 -12 6 2 -3 9 1 22 9 28 8 7 14 20 14 30 0 28 24 67 39 62
7 -2 17 2 22 9 6 10 9 11 10 2 1 -7 2 -19 3 -25 3 -18 -14 -39 -26 -32 -6 4
-5 10 3 15 11 7 11 9 -2 9 -9 0 -20 -7 -23 -16 -3 -8 -2 -12 4 -9 5 3 16 -9
24 -27 11 -24 14 -27 13 -11 -1 12 2 21 8 20 9 -2 8 -37 -1 -46 -7 -7 -34 21
-34 35 0 8 -4 14 -10 14 -5 0 -10 -4 -10 -9 0 -5 -3 -17 -6 -25 -4 -12 -2 -15
9 -10 8 3 18 1 22 -5 3 -6 -2 -11 -12 -11 -14 0 -15 -2 -5 -9 17 -10 17 -22 1
-32 -8 -5 -22 -1 -34 9 -20 17 -20 17 -1 -5 10 -13 22 -20 26 -18 4 3 14 -10
21 -27 10 -24 10 -33 1 -36 -7 -2 -10 -8 -6 -13 8 -13 -10 -11 -23 2 -13 13
-6 42 8 33 5 -3 9 -3 9 0 0 3 -9 10 -20 16 -15 8 -18 8 -15 -3 3 -7 -2 -14
-12 -15 -10 -1 -34 -4 -54 -8 -26 -4 -40 -1 -53 11 -16 16 -17 16 -10 -9 4
-16 2 -26 -5 -26 -6 0 -11 4 -11 10 0 5 -7 7 -15 4 -11 -4 -15 1 -15 17 -1 21
-2 22 -11 7 -5 -10 -18 -18 -27 -18 -10 0 -23 -5 -30 -12 -9 -9 -15 -9 -24 0
-15 15 -70 16 -85 1 -9 -9 -23 -9 -55 -1 -67 18 -103 19 -100 3 2 -8 -3 -11
-13 -8 -9 4 -15 1 -15 -8 0 -8 -4 -15 -10 -15 -5 0 -10 6 -10 14 0 8 -5 18
-12 22 -7 5 -9 2 -4 -7 4 -8 -2 -3 -13 10 -16 18 -21 20 -21 7 0 -16 -15 -22
-23 -8 -2 4 -2 1 -1 -5 2 -7 -6 -18 -18 -24 -18 -10 -20 -9 -15 6 4 9 7 29 8
43 0 15 3 21 6 14 2 -6 9 -9 14 -6 6 3 2 12 -8 20 -17 14 -16 15 7 9 19 -5 22
-4 10 4 -22 16 -43 13 -36 -4 3 -8 -2 -21 -10 -30 -12 -11 -12 -15 -2 -15 8 0
6 -4 -5 -11 -9 -6 -26 -7 -37 -4 -21 7 -55 -17 -42 -29 3 -4 -1 -4 -11 0 -9 3
-14 10 -11 15 3 5 -2 9 -10 9 -19 0 -21 11 -4 28 7 7 8 13 3 13 -85 10 -82 11
-64 -23 8 -15 8 -19 0 -14 -6 4 -18 0 -27 -8 -21 -22 -34 -20 -29 4 2 11 0 20
-6 20 -5 0 -9 -18 -9 -40 0 -43 -15 -55 -23 -17 -4 15 -5 13 -4 -8 1 -17 -2
-35 -5 -41 -6 -9 -8 -63 -6 -182 1 -24 -3 -47 -9 -50 -6 -4 -14 -18 -18 -31
-5 -16 -4 -21 4 -17 6 4 11 14 11 23 0 9 3 14 6 11 6 -6 17 -84 18 -131 1 -24
4 -27 26 -23 14 3 19 3 13 0 -7 -3 -13 -10 -13 -15 0 -6 6 -7 13 -3 8 5 8 2
-2 -9 -12 -15 -11 -17 5 -17 12 0 15 -3 8 -8 -6 -4 -13 -14 -16 -22 -3 -11 -9
-6 -21 16 -9 17 -22 36 -29 42 -9 7 -13 27 -12 51 1 30 -2 38 -12 34 -14 -5
-15 -24 0 -35 5 -3 4 -18 -3 -35 -24 -58 -23 -79 5 -91 14 -7 26 -12 28 -12 9
0 -8 51 -20 61 -16 13 -19 29 -5 29 5 0 19 -17 31 -37 l22 -37 -21 -17 c-12
-10 -27 -19 -33 -21 -7 -3 -12 -21 -12 -41 0 -19 -3 -34 -7 -31 -4 2 -4 -6 -1
-18 5 -21 7 -20 20 12 8 19 15 45 16 57 0 14 7 23 18 23 24 0 48 -11 48 -22 0
-5 -4 -6 -10 -3 -6 4 -7 -2 -2 -17 15 -41 -5 -78 -24 -46 -4 6 -2 14 4 16 19
6 14 22 -8 22 -20 0 -28 -24 -10 -35 17 -11 29 -74 19 -107 -6 -23 -5 -36 4
-45 10 -10 14 -6 23 22 7 22 7 32 1 28 -6 -4 -8 0 -5 8 3 8 2 23 -2 34 -4 12
-1 26 11 38 12 14 16 29 11 59 -4 30 -2 39 6 34 7 -4 12 -1 12 10 0 14 -2 15
-17 3 -15 -12 -16 -12 -10 4 4 10 7 23 7 29 0 7 5 7 13 -1 8 -6 18 -7 22 -3 5
4 5 -1 2 -10 -4 -11 1 -23 16 -33 21 -14 21 -15 2 -17 -11 0 -26 -1 -32 -1 -7
1 -13 -5 -13 -13 0 -8 5 -14 11 -14 5 0 7 -5 3 -12 -4 -7 -3 -8 5 -4 6 4 9 11
6 16 -3 4 2 11 11 14 23 9 26 8 18 -6 -4 -7 -4 -10 0 -6 5 4 14 1 21 -5 10 -9
10 -15 1 -26 -9 -12 -8 -14 6 -8 9 3 19 1 22 -6 2 -7 5 -4 5 6 1 10 6 15 11
12 6 -4 10 -3 9 2 -1 4 0 10 1 13 6 16 7 39 2 38 -21 -4 -62 16 -62 31 0 12
-2 13 -9 3 -6 -10 -10 -9 -14 7 -3 13 -1 19 5 15 5 -4 4 4 -3 17 -7 15 -14 19
-17 11 -4 -14 -22 -7 -22 9 0 6 5 7 10 4 6 -3 10 -1 10 4 0 6 -7 11 -15 11 -9
0 -15 10 -16 23 -1 44 -6 67 -14 74 -4 5 -6 0 -2 -9 3 -9 0 -19 -8 -21 -19 -8
-26 2 -19 28 3 12 -2 49 -10 81 -14 54 -14 60 1 74 14 14 15 13 10 -9 -4 -18
-3 -21 6 -12 14 14 30 14 21 0 -4 -8 0 -8 15 0 18 10 21 9 21 -6 0 -14 2 -15
9 -4 6 9 11 10 15 2 11 -17 23 -13 29 10 3 12 10 18 16 14 6 -3 11 -1 11 5 0
6 5 8 10 5 6 -4 8 -10 5 -15 -7 -11 25 -36 33 -24 9 12 32 16 32 5 0 -5 -7
-12 -16 -15 -8 -3 -12 -10 -9 -16 4 -6 12 -7 18 -3 7 4 5 -1 -3 -11 -9 -12
-16 -14 -18 -7 -3 9 -7 9 -18 0 -20 -16 -18 -22 16 -58 39 -40 50 -40 15 0
-28 34 -27 51 2 28 9 -8 14 -9 10 -3 -4 7 0 17 8 24 13 11 14 10 8 -6 -6 -17
-5 -17 13 1 11 11 26 44 33 72 12 50 11 55 -11 90 l-23 38 -3 -29 c-2 -15 0
-40 3 -55 13 -47 11 -99 -2 -94 -9 4 -11 17 -7 44 l7 39 -33 -2 -34 -3 3 100
c3 150 7 165 43 165 30 0 31 -1 25 -41 l-5 -42 42 42 42 41 22 -23 22 -23 -26
-25 c-14 -13 -30 -32 -35 -41 -12 -22 0 -51 18 -44 8 3 11 1 8 -5 -4 -5 1 -21
10 -35 16 -24 15 -27 -1 -45 -9 -10 -23 -19 -31 -19 -14 0 -34 -39 -26 -52 2
-5 14 -8 27 -8 13 0 31 -9 41 -20 22 -24 38 -25 55 -5 10 12 10 15 -1 15 -9 1
-8 5 5 15 11 8 14 15 8 15 -7 0 -12 12 -13 28 0 15 -3 21 -6 15 -8 -21 -21
-15 -22 10 0 12 -4 46 -7 76 -8 68 8 123 43 150 35 29 74 27 104 -5 21 -22 24
-35 23 -94 0 -45 -6 -77 -17 -93 -16 -24 -15 -26 7 -40 12 -9 23 -22 23 -31 0
-19 -2 -19 -28 -6 -11 6 -19 7 -19 1 0 -5 -9 -7 -20 -4 -34 9 -9 26 29 20 34
-6 35 -5 16 9 -13 10 -29 12 -45 8 -14 -4 -35 -7 -47 -7 -33 1 -26 -27 10 -40
16 -6 17 -8 2 -31 -13 -19 -14 -26 -3 -32 25 -16 38 -12 44 14 9 38 24 53 45
47 9 -3 20 -1 24 5 3 5 19 10 34 10 16 0 34 7 41 15 11 13 15 14 29 1 23 -20
150 -19 174 2 15 14 19 13 36 -2 16 -15 23 -15 41 -6 18 9 28 9 46 0 15 -9 50
-11 108 -7 48 3 88 1 91 -4 4 -5 11 -9 16 -9 6 0 7 5 4 10 -3 6 -1 10 4 10 13
0 14 -6 2 -29 -7 -13 -5 -20 11 -30 17 -11 19 -10 10 5 -8 14 -6 22 6 32 10 7
11 10 3 6 -9 -5 -12 -3 -7 4 4 7 12 12 17 12 18 0 36 24 31 42 -3 12 4 21 23
28 33 13 38 13 30 0 -3 -5 -1 -10 4 -10 6 0 11 -9 11 -19 0 -40 11 -51 51 -51
21 0 39 5 39 10 0 6 7 10 15 10 8 0 15 -6 15 -12 0 -10 2 -10 8 -1 6 9 12 7
25 -7 15 -18 14 -24 -5 -21 -4 0 -7 -10 -6 -24 1 -13 4 -22 7 -20 2 3 10 -3
18 -13 13 -15 13 -15 4 5 -14 27 -14 43 -1 43 6 0 10 -7 10 -15 0 -8 5 -15 10
-15 14 0 12 12 -6 39 -14 19 -14 25 -3 32 20 12 39 11 39 -2 0 -9 24 -10 88
-4 111 9 128 9 180 0 29 -5 51 -4 68 5 19 11 27 11 36 2 15 -15 71 -15 86 0 9
9 18 9 37 0 34 -16 57 -15 81 2 16 12 20 31 25 138 5 103 3 126 -10 143 -19
23 -60 26 -85 6 -14 -12 -22 -12 -37 -3 -24 15 -62 15 -77 0 -9 -9 -18 -9 -37
0 -35 16 -70 15 -106 -4 -28 -14 -32 -14 -48 0 -13 12 -39 16 -94 16 -69 0
-76 2 -72 19 2 11 -3 22 -12 25 -9 4 -13 9 -10 12 3 3 15 0 27 -6 30 -16 54 5
28 24 -16 12 -16 16 12 52 16 21 30 47 30 56 0 21 -36 43 -45 28 -3 -6 0 -13
8 -16 9 -3 13 -13 10 -25 -3 -11 -11 -18 -19 -15 -7 3 -14 0 -16 -6 -2 -6 -18
-11 -36 -10 -27 1 -32 -3 -31 -21 1 -17 2 -18 6 -4 5 17 15 22 26 11 10 -11
-5 -34 -22 -34 -9 0 -22 -5 -29 -12 -14 -14 -16 -4 -3 20 7 13 2 22 -18 37
-20 15 -23 15 -12 2 12 -16 8 -22 -12 -18 -5 1 -6 -3 -2 -9 3 -5 -2 -13 -11
-17 -10 -4 -19 -2 -21 4 -3 8 -13 9 -34 1 -16 -5 -27 -14 -24 -18 3 -4 -5 -6
-17 -3 -15 3 -19 2 -11 -4 15 -11 5 -56 -11 -50 -6 3 -19 -2 -28 -11 -12 -10
-18 -11 -18 -4 0 7 0 14 0 17 0 3 3 5 6 4 13 -1 32 36 23 47 -5 6 -4 15 2 21
7 7 7 13 1 17 -10 6 -34 -48 -26 -57 3 -2 -3 -7 -12 -11 -12 -5 -15 -2 -9 11
4 10 9 27 11 38 2 11 -1 8 -7 -8 -11 -29 -34 -27 -24 2 3 11 0 18 -9 18 -8 0
-12 -6 -8 -15 3 -10 1 -13 -6 -8 -6 4 -21 2 -33 -4 -17 -10 -24 -8 -40 9 -11
12 -15 21 -8 21 6 0 17 -7 24 -16 11 -15 12 -15 12 1 0 18 -53 76 -62 67 -3
-3 -5 -16 -5 -28 0 -13 -4 -25 -9 -28 -5 -4 -7 4 -5 16 2 13 2 17 -2 11 -7
-16 -40 -17 -49 -3 -4 6 -11 8 -16 4 -5 -3 -7 -10 -4 -15 4 -5 1 -9 -4 -9 -6
0 -9 10 -7 23 3 12 5 27 5 34 1 12 40 11 74 -2 10 -4 17 -3 17 4 0 10 -14 15
-32 12 -5 0 -8 4 -8 10 0 6 -8 8 -18 5 -10 -4 -27 1 -38 10 -18 15 -18 15 3 5
28 -14 77 5 68 27 -3 7 -5 18 -5 23 0 4 -7 6 -16 2 -11 -4 -12 -9 -5 -16 13
-13 14 -27 3 -27 -5 0 -14 10 -21 23 l-11 22 6 -22 c4 -17 1 -23 -11 -23 -11
0 -15 6 -10 19 4 14 0 20 -20 23 -16 4 -29 0 -34 -9 -18 -33 -46 0 -35 42 4
18 11 24 21 21 8 -3 19 -6 25 -6 6 0 7 -7 4 -16 -5 -12 -1 -14 17 -9 17 5 19
4 7 -4 -13 -9 -13 -11 3 -11 11 0 17 8 17 25 0 18 -4 23 -15 18 -10 -3 -15 0
-13 8 2 8 -3 13 -11 11 -8 -2 -17 1 -20 5 -3 5 -16 7 -28 5z m671 -220 c-20
-14 -24 -41 -6 -51 9 -5 13 -13 8 -18 -5 -4 -11 -2 -13 5 -3 6 -16 12 -29 12
-15 0 -23 4 -19 10 4 6 11 7 17 4 7 -5 9 2 6 19 -3 15 -2 25 1 22 4 -2 13 0
21 5 17 10 30 2 14 -8z m-600 -33 c13 -15 15 -24 7 -29 -9 -5 -8 -10 4 -20 17
-14 20 -40 4 -40 -5 0 -8 4 -5 8 6 10 -10 37 -24 38 -5 1 -14 2 -20 3 -5 0
-10 6 -10 12 0 8 5 8 15 -1 9 -8 15 -9 15 -2 0 6 -4 14 -10 17 -12 7 -14 35
-2 35 4 0 16 -10 26 -21z m71 1 c-5 -14 -2 -20 10 -20 9 0 14 3 12 8 -3 4 5 7
18 7 13 0 21 -3 18 -7 -4 -8 18 -12 52 -10 16 2 17 0 5 -8 -10 -6 -11 -10 -2
-10 21 0 13 -27 -13 -44 -15 -10 -25 -12 -25 -6 0 6 -4 8 -10 5 -5 -3 -10 -1
-10 6 0 9 -3 9 -14 0 -10 -8 -16 -9 -21 -1 -3 5 -11 10 -16 10 -6 0 -7 -4 -4
-10 3 -5 3 -10 -2 -10 -16 0 -30 15 -37 38 -3 12 -9 31 -12 42 -3 11 -1 20 5
20 6 0 10 -3 9 -7 -1 -5 2 -20 6 -35 6 -21 15 -28 35 -30 14 0 33 -2 41 -2 8
-1 18 2 21 7 9 12 31 -1 24 -14 -3 -5 1 -6 9 -3 17 7 10 34 -9 34 -8 0 -24 -4
-38 -9 -14 -6 -29 -6 -38 0 -8 5 -9 9 -4 9 6 0 -1 7 -15 15 -27 15 -29 23 -8
36 19 12 20 11 13 -11z m401 -39 c-12 -19 -21 -12 -23 15 -1 24 1 25 14 11 9
-8 12 -20 9 -26z m-66 21 c0 -4 -5 -13 -11 -19 -13 -13 -3 -36 12 -27 5 3 7 9
4 13 -2 5 2 17 10 27 13 17 14 18 15 2 0 -10 -5 -18 -12 -18 -6 0 -3 -7 8 -16
10 -8 13 -12 5 -8 -10 5 -12 3 -7 -5 6 -9 13 -8 29 6 12 10 25 23 30 28 4 6
10 1 13 -12 5 -18 10 -21 24 -13 22 12 39 -5 33 -31 -4 -15 -11 -18 -32 -13
-78 18 -147 20 -166 4 -10 -8 -19 -9 -34 0 -23 12 -28 21 -9 18 7 -2 17 7 23
20 5 12 16 22 23 22 7 0 15 7 18 15 6 16 24 21 24 7z m-161 -23 c14 -23 13
-24 -31 -50 -27 -15 -23 7 4 25 20 14 18 21 -4 17 -5 0 -8 6 -8 14 0 22 23 18
39 -6z m286 11 c3 -5 2 -10 -4 -10 -5 0 -13 5 -16 10 -3 6 -2 10 4 10 5 0 13
-4 16 -10z m-1425 -40 c0 -4 -6 -12 -13 -18 -9 -8 -16 -6 -24 7 -10 16 -8 19
13 19 13 0 24 -4 24 -8z m885 -11 c-6 -33 -15 -36 -15 -6 0 15 4 27 9 27 6 0
8 -10 6 -21z m272 -15 c-3 -3 -12 -4 -19 -1 -8 3 -5 6 6 6 11 1 17 -2 13 -5z
m-1143 -35 c22 -17 26 -28 24 -56 -3 -32 -6 -36 -36 -38 l-33 -3 5 42 5 41
-20 -23 c-28 -35 -43 -100 -30 -129 14 -30 25 -29 50 3 17 22 23 24 36 14 22
-18 19 -27 -21 -69 -36 -37 -38 -37 -73 -26 -24 9 -42 24 -56 48 -17 32 -18
41 -8 91 23 109 93 156 157 105z m535 -42 l20 -52 0 51 c1 28 3 53 6 56 8 8
65 -4 60 -12 -3 -5 -6 -60 -6 -123 l0 -115 -30 -4 c-33 -5 -44 9 -69 87 -16
52 -24 60 -41 38 -13 -17 -13 -17 4 -4 17 13 18 10 15 -55 l-3 -69 -30 0 -30
0 2 85 c4 136 10 168 36 172 36 6 45 -1 66 -55z m486 28 c0 -29 -2 -30 -54
-35 -46 -4 -55 -9 -63 -30 -7 -20 -7 -23 3 -12 7 6 30 12 51 12 35 0 38 -2 38
-29 0 -28 -3 -30 -42 -33 -32 -2 -44 -8 -46 -21 -3 -16 3 -18 50 -15 53 3 53
3 53 -27 l0 -30 -80 -6 c-44 -3 -84 -2 -88 1 -4 4 -5 61 -1 128 l7 121 71 4
c103 5 101 5 101 -28z m183 3 c-3 -32 -5 -33 -53 -38 -43 -4 -50 -8 -53 -29
-4 -23 -2 -24 42 -18 45 7 46 6 46 -22 0 -31 -14 -41 -61 -41 -28 0 -29 -2
-29 -44 0 -43 -1 -44 -32 -42 l-31 2 2 74 c1 41 4 98 7 127 l6 52 72 4 c39 1
75 4 79 5 5 1 7 -13 5 -30z m400 0 c-3 -32 -4 -33 -54 -36 -41 -2 -53 -7 -57
-22 -4 -18 -1 -19 39 -13 44 6 44 6 44 -25 0 -29 -2 -31 -42 -34 -33 -2 -44
-8 -46 -22 -4 -17 1 -19 52 -13 l56 6 0 -35 0 -34 -69 0 c-38 0 -76 -3 -85 -6
-14 -5 -16 5 -16 79 0 46 3 105 6 130 l7 46 66 4 c36 2 74 4 84 5 15 2 18 -4
15 -30z m270 -18 c-3 -49 -2 -50 25 -50 26 0 27 2 27 50 l0 50 36 0 37 0 -7
-52 c-3 -29 -6 -88 -6 -130 l0 -78 -36 0 -36 0 4 50 c3 49 2 51 -22 48 -22 -3
-26 -9 -30 -53 -5 -48 -6 -50 -38 -53 l-33 -2 6 72 c17 215 13 198 47 198 30
0 30 0 26 -50z m-1068 21 c19 -36 7 -103 -22 -122 -5 -3 1 -23 13 -43 12 -20
20 -38 18 -40 -48 -37 -50 -37 -73 7 -30 56 -46 59 -46 8 0 -39 -1 -41 -31
-41 l-31 0 6 116 c3 63 8 120 11 125 4 5 37 9 75 9 58 0 71 -3 80 -19z m586
-6 c19 -29 13 -78 -13 -107 -16 -18 -16 -21 0 -47 22 -38 22 -46 -7 -65 -24
-15 -25 -15 -47 29 -26 53 -43 53 -47 2 -3 -34 -6 -37 -33 -37 l-29 0 5 73 c3
39 8 96 11 125 l5 52 69 0 c63 0 71 -2 86 -25z m384 6 c5 -11 10 -31 10 -45 0
-22 -4 -26 -30 -26 -25 0 -30 4 -30 25 0 28 -15 33 -24 8 -5 -12 7 -29 39 -58
47 -44 52 -58 33 -99 -14 -33 -65 -48 -113 -35 -42 12 -49 22 -35 49 10 19 13
19 41 5 16 -9 34 -13 39 -10 19 12 10 35 -20 50 -48 25 -64 57 -50 100 14 43
32 54 87 55 32 0 45 -5 53 -19z m-1824 -95 c17 -17 8 -46 -14 -46 -12 0 -13 3
-4 12 7 7 8 17 1 30 -12 22 -3 24 17 4z m254 4 c0 -5 -5 -10 -11 -10 -5 0 -7
5 -4 10 3 6 8 10 11 10 2 0 4 -4 4 -10z m1424 -51 c-10 -16 -36 -10 -30 7 3 9
6 21 6 27 0 7 7 3 15 -7 8 -10 12 -23 9 -27z m-1484 -70 c0 -5 -7 -9 -15 -9
-8 0 -15 7 -15 15 0 9 6 12 15 9 8 -4 15 -10 15 -15z m90 -53 c0 -7 -15 -12
-37 -12 -21 -1 -30 1 -20 3 9 3 15 8 13 11 -2 4 7 8 20 8 13 1 24 -3 24 -10z
m20 -31 c0 -22 -2 -24 -14 -13 -10 9 -11 17 -4 26 15 17 18 15 18 -13z m110
15 c0 -5 -5 -10 -11 -10 -5 0 -7 5 -4 10 3 6 8 10 11 10 2 0 4 -4 4 -10z m-10
-34 c0 -8 -6 -16 -14 -19 -12 -5 -14 6 -7 31 3 9 21 -1 21 -12z m-551 -190 c7
-8 8 -17 3 -20 -6 -3 -12 3 -15 14 -6 24 -4 25 12 6z m74 -42 c11 -11 -3 -24
-18 -18 -8 4 -12 10 -9 15 6 11 18 12 27 3z m125 -63 c8 -5 12 -17 10 -27 -5
-18 -5 -18 -13 1 -5 11 -13 23 -19 27 -16 11 6 10 22 -1z"/>
<path d="M1768 923 c7 -3 16 -2 19 1 4 3 -2 6 -13 5 -11 0 -14 -3 -6 -6z"/>
<path d="M2020 895 c0 -8 -4 -15 -10 -15 -5 0 -10 -5 -10 -10 0 -6 8 -5 20 2
21 13 27 38 10 38 -5 0 -10 -7 -10 -15z"/>
<path d="M760 791 c0 -5 5 -13 10 -16 6 -3 10 -2 10 4 0 5 -4 13 -10 16 -5 3
-10 2 -10 -4z"/>
<path d="M1332 648 c7 -15 15 -23 17 -17 2 6 -4 18 -13 27 -15 15 -15 15 -4
-10z"/>
<path d="M1700 810 c0 -5 7 -10 16 -10 8 0 12 5 9 10 -3 6 -10 10 -16 10 -5 0
-9 -4 -9 -10z"/>
<path d="M1673 705 c0 -8 4 -15 9 -15 4 0 8 4 8 9 0 6 -4 12 -8 15 -5 3 -9 -1
-9 -9z"/>
<path d="M2290 810 c0 -6 7 -10 15 -10 8 0 15 2 15 4 0 2 -7 6 -15 10 -8 3
-15 1 -15 -4z"/>
<path d="M2263 715 c-3 -9 -3 -18 -1 -21 3 -3 8 4 11 16 6 23 -1 27 -10 5z"/>
<path d="M2260 610 c-9 -6 -10 -10 -3 -10 6 0 15 5 18 10 8 12 4 12 -15 0z"/>
<path d="M2695 731 c-3 -5 -2 -12 3 -15 5 -3 9 1 9 9 0 17 -3 19 -12 6z"/>
<path d="M2730 639 c0 -5 5 -7 10 -4 6 3 10 8 10 11 0 2 -4 4 -10 4 -5 0 -10
-5 -10 -11z"/>
<path d="M1519 789 c-23 -9 -46 -46 -34 -57 11 -11 45 13 54 38 5 17 9 30 8
29 -1 0 -14 -5 -28 -10z"/>
<path d="M2083 783 c-18 -7 -16 -53 1 -53 17 0 48 39 40 52 -6 9 -22 9 -41 1z"/>
<path d="M2110 723 c0 -4 5 -15 10 -23 8 -13 10 -13 10 2 0 9 -4 20 -10 23 -5
3 -10 3 -10 -2z"/>
<path d="M2148 1197 c-3 -14 0 -31 5 -36 8 -8 7 -11 -2 -11 -7 0 -9 -5 -6 -10
4 -6 13 -9 22 -8 10 2 16 -6 18 -23 3 -21 0 -26 -13 -22 -10 2 -22 -5 -30 -17
-15 -24 -3 -26 38 -5 31 16 52 3 31 -18 -8 -8 -11 -8 -11 1 0 9 -6 9 -25 0
-15 -7 -25 -20 -25 -32 0 -15 3 -17 12 -8 7 7 23 12 36 12 13 0 32 5 43 10 21
12 27 42 6 34 -17 -6 -33 13 -43 50 -5 21 -4 27 5 22 6 -4 8 -12 5 -18 -5 -8
-1 -9 10 -5 15 6 17 3 12 -18 -6 -24 7 -35 19 -15 3 5 15 15 27 21 13 7 18 7
14 1 -3 -6 -2 -13 4 -17 5 -3 10 -1 10 4 0 6 5 11 11 11 5 0 7 -5 4 -11 -4 -6
2 -5 13 2 16 10 18 16 10 27 -8 9 -8 16 -1 23 8 8 13 7 17 0 4 -6 13 -11 19
-11 7 0 3 7 -7 15 -21 16 -46 4 -46 -22 0 -17 -22 -12 -28 7 -3 7 0 10 7 6 10
-6 15 6 12 27 0 4 9 7 22 8 21 1 21 1 -3 9 -23 7 -23 8 -3 9 18 1 46 21 29 21
-17 0 -56 -22 -52 -29 9 -14 -22 -34 -44 -28 -11 3 -18 1 -14 -4 3 -5 12 -9
20 -9 12 0 12 -4 4 -20 -6 -11 -16 -18 -22 -14 -7 4 -6 9 2 14 12 7 -37 23
-76 24 -13 0 -20 5 -17 12 2 6 14 11 25 10 12 0 23 5 26 12 3 11 0 12 -16 3
-18 -10 -23 -8 -35 15 l-14 27 -5 -26z"/>
<path d="M2950 1210 c0 -5 -8 -7 -17 -4 -15 5 -16 4 -3 -5 9 -6 10 -11 3 -11
-13 0 -12 -25 2 -37 4 -4 5 -2 1 5 -10 17 15 15 42 -4 12 -8 22 -11 22 -6 0 5
-12 14 -26 20 -19 9 -24 17 -19 32 4 11 4 20 1 20 -3 0 -6 -4 -6 -10z"/>
<path d="M662 1198 c-7 -7 -12 -16 -12 -21 0 -5 7 -1 16 8 9 9 14 18 12 20 -2
3 -10 -1 -16 -7z"/>
<path d="M995 1199 c-9 -14 -2 -20 14 -10 8 6 9 11 3 15 -6 3 -14 1 -17 -5z"/>
<path d="M1070 1195 c-11 -13 -15 -13 -21 -3 -7 10 -9 8 -9 -5 0 -12 -4 -16
-12 -11 -7 4 -10 4 -6 -1 4 -4 1 -14 -7 -22 -20 -19 -19 -33 3 -33 12 0 14 2
4 8 -18 12 22 47 43 38 10 -3 14 -2 10 5 -4 6 1 17 11 24 11 8 14 15 8 15 -6
0 -17 -7 -24 -15z"/>
<path d="M1702 1188 c-28 -28 -5 -56 30 -36 13 7 26 11 31 10 4 -1 7 3 7 8 0
13 -26 13 -51 -1 -19 -10 -19 -9 -9 10 12 24 10 27 -8 9z"/>
<path d="M2233 1189 c3 -9 0 -22 -6 -28 -8 -8 -8 -11 0 -11 17 0 25 32 12 44
-9 8 -10 7 -6 -5z"/>
<path d="M2030 1180 c0 -5 6 -7 14 -4 11 4 13 -1 10 -18 -4 -21 -3 -21 5 -3 4
11 7 23 4 28 -6 10 -33 9 -33 -3z"/>
<path d="M869 1163 c-13 -16 -12 -17 4 -4 9 7 17 15 17 17 0 8 -8 3 -21 -13z"/>
<path d="M976 1163 c2 -7 -1 -13 -7 -13 -6 0 -7 -5 -3 -12 5 -7 2 -9 -7 -6
-10 4 -15 -1 -15 -13 0 -17 1 -17 19 -1 22 20 45 58 29 48 -6 -3 -12 -3 -15 1
-2 5 -2 2 -1 -4z"/>
<path d="M1788 1162 c-34 -21 -38 -30 -29 -73 6 -31 10 -34 44 -35 20 -1 34 3
31 7 -3 5 5 9 18 9 21 1 22 2 6 14 -10 7 -15 16 -12 19 15 14 -8 27 -28 16
-19 -10 -20 -13 -6 -23 11 -8 14 -17 7 -27 -8 -13 -13 -6 -10 14 2 12 -17 8
-22 -5 -2 -7 -3 -5 -2 5 2 9 -2 17 -8 17 -7 0 -7 4 2 9 11 7 10 10 -5 14 -14
3 -12 5 9 7 15 1 33 3 40 4 6 1 18 -3 26 -8 12 -9 13 -7 8 7 -4 10 -7 20 -7
23 0 2 -11 -1 -25 -6 -29 -11 -31 -8 -9 14 20 20 7 19 -28 -2z"/>
<path d="M1597 1163 c-10 -9 -9 -23 2 -23 5 0 11 7 15 15 5 15 -5 20 -17 8z"/>
<path d="M2546 1159 c3 -5 10 -6 16 -3 7 4 8 2 4 -4 -4 -6 -13 -9 -21 -5 -21
7 -19 -7 3 -23 13 -10 14 -13 3 -14 -11 0 -9 -4 5 -14 12 -9 23 -11 30 -5 13
10 41 -17 30 -28 -4 -4 -12 -1 -17 7 -9 13 -10 13 -6 0 5 -20 31 -19 35 2 2 9
-6 22 -17 28 -12 6 -21 17 -21 25 0 8 -4 15 -10 15 -5 0 -9 5 -7 11 1 6 -6 13
-16 14 -9 2 -15 -1 -11 -6z m38 -58 c-6 -6 -24 19 -24 34 1 6 7 1 15 -9 8 -11
12 -22 9 -25z"/>
<path d="M2698 1145 c-3 -13 -2 -22 2 -20 5 3 11 -3 14 -12 4 -9 2 -19 -3 -22
-5 -4 -3 -15 6 -26 15 -20 15 -20 8 3 -4 13 -2 22 4 22 6 0 11 -9 11 -20 0
-11 4 -20 10 -20 5 0 7 7 4 15 -4 8 -1 15 5 15 6 0 11 -10 11 -21 0 -17 3 -19
14 -10 10 8 16 9 21 2 10 -17 45 -33 45 -21 0 5 -5 10 -11 10 -13 0 -34 20
-42 40 -4 11 -6 9 -6 -5 -1 -16 -3 -17 -10 -6 -11 18 -3 43 12 34 6 -3 7 -1 3
6 -4 6 -12 9 -17 6 -5 -4 -9 -1 -9 5 0 6 -5 8 -10 5 -8 -5 -8 -11 0 -20 9 -11
7 -12 -10 -8 -22 6 -45 48 -34 64 3 5 1 9 -4 9 -5 0 -12 -11 -14 -25z"/>
<path d="M2734 1150 c0 -13 4 -16 10 -10 7 7 7 13 0 20 -6 6 -10 3 -10 -10z"/>
<path d="M1075 1140 c-10 -11 -13 -20 -7 -20 7 0 12 5 12 11 0 5 4 8 8 5 5 -3
9 1 9 9 0 19 0 19 -22 -5z"/>
<path d="M1873 1143 c-4 -9 -1 -19 5 -21 7 -2 12 -11 11 -20 0 -11 -2 -12 -6
-4 -5 13 -23 17 -23 4 0 -15 42 -53 53 -49 21 7 14 51 -12 71 -22 19 -23 20
-5 27 17 7 17 8 1 8 -10 1 -21 -7 -24 -16z m47 -63 c0 -5 -4 -10 -10 -10 -5 0
-10 5 -10 10 0 6 5 10 10 10 6 0 10 -4 10 -10z"/>
<path d="M1925 1150 c-3 -5 -1 -10 4 -10 6 0 11 5 11 10 0 6 -2 10 -4 10 -3 0
-8 -4 -11 -10z"/>
<path d="M2030 1152 c0 -7 -6 -12 -12 -12 -7 0 -22 -8 -33 -16 -19 -16 -19
-16 5 -10 24 7 24 6 6 -8 -11 -9 -27 -16 -35 -16 -13 0 -13 -2 -2 -9 7 -5 10
-14 7 -20 -4 -6 -1 -11 8 -11 10 0 13 6 10 15 -4 8 -1 15 5 15 6 0 11 -4 11
-10 0 -5 3 -9 8 -9 25 4 23 -4 -7 -22 -27 -16 -36 -18 -42 -7 -7 10 -9 9 -9
-4 0 -12 -8 -18 -22 -18 -16 0 -19 -3 -11 -11 8 -8 19 -6 41 5 28 15 42 13 42
-6 0 -5 -6 -6 -12 -3 -7 4 -4 -1 6 -9 13 -11 15 -16 6 -16 -7 0 -11 -3 -8 -6
3 -3 22 4 42 14 26 14 32 21 21 26 -8 3 -21 4 -27 2 -7 -1 -10 -1 -6 1 4 2 4
11 1 19 -3 8 -1 14 5 14 6 0 12 -6 15 -12 2 -7 8 -9 13 -5 4 4 3 16 -3 26 -14
23 -5 35 14 19 17 -14 31 -2 15 14 -10 10 -17 10 -32 0 -28 -17 -53 -5 -39 19
5 10 6 19 2 19 -4 0 2 6 13 14 10 8 16 18 11 22 -4 4 -7 2 -7 -4z"/>
<path d="M827 1133 c-4 -3 -7 -20 -7 -36 l0 -30 21 27 c11 14 18 32 16 39 -3
7 -6 4 -6 -6 -1 -10 -6 -15 -11 -12 -6 4 -8 11 -5 16 7 10 1 12 -8 2z"/>
<path d="M891 1124 c0 -11 3 -14 6 -6 3 7 2 16 -1 19 -3 4 -6 -2 -5 -13z"/>
<path d="M2110 1130 c0 -6 7 -10 15 -10 8 0 15 2 15 4 0 2 -7 6 -15 10 -8 3
-15 1 -15 -4z"/>
<path d="M2849 1119 c-11 -22 3 -50 18 -35 4 4 1 11 -7 16 -8 6 -10 10 -4 10
5 0 15 -5 20 -10 7 -7 11 -6 11 4 0 8 -5 14 -11 13 -6 -1 -10 4 -8 11 3 19 -6
14 -19 -9z"/>
<path d="M772 1105 c-17 -37 -14 -45 4 -12 9 16 14 31 11 33 -2 2 -9 -7 -15
-21z"/>
<path d="M1923 1123 c9 -2 23 -2 30 0 6 3 -1 5 -18 5 -16 0 -22 -2 -12 -5z"/>
<path d="M2933 1117 c0 -8 6 -14 14 -14 9 0 10 4 2 14 -6 7 -12 13 -14 13 -1
0 -2 -6 -2 -13z"/>
<path d="M2030 1105 c0 -9 6 -12 15 -9 8 4 15 7 15 9 0 2 -7 5 -15 9 -9 3 -15
0 -15 -9z"/>
<path d="M2074 1108 c-4 -6 -3 -8 4 -4 5 3 13 0 15 -6 3 -8 6 -6 6 5 1 19 -14
23 -25 5z"/>
<path d="M735 1099 c-4 -6 -5 -12 -2 -15 2 -3 7 2 10 11 7 17 1 20 -8 4z"/>
<path d="M1030 1088 c-19 -13 -35 -30 -37 -38 -3 -10 0 -9 7 3 6 9 16 14 22
11 6 -4 8 -3 5 3 -8 12 47 35 59 25 4 -4 4 -1 0 6 -10 17 -18 15 -56 -10z"/>
<path d="M2376 1101 c-3 -5 2 -15 11 -22 15 -12 16 -12 10 5 -6 14 -4 17 8 12
9 -3 13 -2 10 4 -8 12 -32 13 -39 1z"/>
<path d="M866 1085 c4 -8 1 -15 -7 -15 -7 0 -9 -3 -6 -6 9 -9 38 16 31 27 -9
15 -24 10 -18 -6z"/>
<path d="M1080 1079 c-23 -12 -29 -19 -17 -19 11 0 30 9 44 20 31 24 20 24
-27 -1z"/>
<path d="M2115 1090 c3 -5 1 -10 -5 -10 -6 0 -8 -5 -5 -10 5 -8 11 -7 21 1 14
12 10 29 -7 29 -6 0 -7 -4 -4 -10z"/>
<path d="M2904 1078 c3 -13 8 -32 11 -43 4 -13 -1 -29 -14 -44 -24 -27 -25
-31 -11 -31 5 0 16 12 24 28 11 19 15 22 16 10 0 -11 5 -15 15 -12 12 5 12 8
-2 22 -10 11 -12 17 -4 20 6 2 11 8 11 14 0 6 -7 8 -15 4 -10 -4 -15 1 -15 14
0 11 5 20 11 20 5 0 8 -4 5 -9 -4 -5 2 -8 11 -7 9 2 19 9 21 17 3 12 2 12 -6
0 -5 -7 -11 -9 -13 -3 -2 5 -14 13 -27 16 -20 7 -22 5 -18 -16z"/>
<path d="M786 1075 c-3 -8 -1 -15 4 -15 6 0 10 7 10 15 0 8 -2 15 -4 15 -2 0
-6 -7 -10 -15z"/>
<path d="M903 1075 c0 -9 8 -13 21 -10 12 2 27 4 34 4 28 2 9 21 -21 21 -23 0
-34 -5 -34 -15z"/>
<path d="M1535 1080 c-3 -5 -1 -10 4 -10 6 0 11 5 11 10 0 6 -2 10 -4 10 -3 0
-8 -4 -11 -10z"/>
<path d="M2832 1073 c7 -13 16 -23 20 -23 5 0 8 -6 8 -14 0 -7 7 -19 15 -26
30 -25 15 10 -21 48 -19 20 -29 27 -22 15z"/>
<path d="M2876 1071 c-4 -6 -3 -11 2 -11 5 0 12 -10 15 -22 4 -12 9 -19 12
-16 4 3 0 19 -8 34 -9 17 -17 23 -21 15z"/>
<path d="M1861 1048 c8 -7 20 -20 28 -28 8 -8 11 -9 7 -2 -4 6 -2 12 4 12 6 0
8 5 5 10 -4 6 -11 8 -16 5 -5 -4 -9 -1 -9 4 0 6 -8 11 -17 11 -14 0 -15 -2 -2
-12z"/>
<path d="M2970 1048 c0 -10 5 -18 11 -18 5 0 8 -4 4 -10 -3 -5 -11 -8 -18 -6
-7 1 -9 1 -5 -1 4 -3 10 -4 14 -3 4 1 11 -4 15 -12 14 -21 6 23 -9 47 -10 18
-11 18 -12 3z"/>
<path d="M840 1040 c-13 -8 -12 -10 3 -10 9 0 17 5 17 10 0 12 -1 12 -20 0z"/>
<path d="M960 1041 c8 -6 10 -11 4 -11 -7 0 -14 -7 -18 -15 -4 -12 -2 -13 14
-2 22 13 22 29 -1 35 -11 3 -11 2 1 -7z"/>
<path d="M1062 1030 c-15 -24 -15 -30 -1 -30 5 0 8 4 5 9 -4 5 -1 11 5 13 7 2
10 9 8 16 -3 8 -9 5 -17 -8z"/>
<path d="M2103 1035 c-3 -9 -3 -18 -1 -21 3 -3 8 4 11 16 6 23 -1 27 -10 5z"/>
<path d="M890 1028 c0 -10 -4 -17 -9 -15 -5 1 -9 -2 -8 -8 0 -5 10 -8 21 -7
20 4 20 3 -2 -18 -13 -12 -27 -33 -33 -47 -5 -13 -13 -21 -19 -18 -5 3 -18 2
-27 -4 -15 -8 -13 -9 11 -7 18 2 37 14 50 32 11 16 29 38 38 48 13 14 15 22 7
27 -6 4 -15 13 -20 20 -7 11 -9 10 -9 -3z"/>
<path d="M1010 1030 c0 -5 7 -7 15 -4 8 4 15 8 15 10 0 2 -7 4 -15 4 -8 0 -15
-4 -15 -10z"/>
<path d="M1800 1034 c0 -8 32 -33 42 -34 4 0 12 9 18 20 8 16 8 20 -4 20 -10
0 -13 -6 -10 -17 5 -17 5 -17 -6 0 -10 16 -40 24 -40 11z"/>
<path d="M1920 1029 c0 -5 5 -7 10 -4 6 3 10 8 10 11 0 2 -4 4 -10 4 -5 0 -10
-5 -10 -11z"/>
<path d="M918 1023 c7 -3 16 -2 19 1 4 3 -2 6 -13 5 -11 0 -14 -3 -6 -6z"/>
<path d="M1726 1021 c-4 -7 -5 -15 -2 -18 9 -9 19 4 14 18 -4 11 -6 11 -12 0z"/>
<path d="M722 997 c-7 -9 -8 -17 -1 -27 9 -13 10 -13 6 0 -2 8 3 20 12 27 9 7
11 13 5 13 -6 0 -16 -6 -22 -13z"/>
<path d="M822 998 c-15 -15 -15 -28 0 -28 6 0 8 3 5 7 -4 3 -2 12 4 20 14 16
7 17 -9 1z"/>
<path d="M975 1000 c3 -5 1 -19 -5 -30 -6 -11 -7 -20 -2 -20 5 0 14 11 20 24
9 20 8 25 -4 30 -8 3 -12 1 -9 -4z"/>
<path d="M1866 1002 c-3 -4 4 -9 15 -9 23 -2 25 3 4 10 -8 4 -16 3 -19 -1z"/>
<path d="M2846 1002 c-3 -6 1 -13 10 -16 23 -9 28 -2 10 13 -8 7 -17 8 -20 3z"/>
<path d="M1021 993 c-1 -17 16 -25 25 -12 4 7 3 9 -4 5 -5 -3 -13 0 -15 6 -4
9 -6 10 -6 1z"/>
<path d="M670 986 c0 -2 7 -7 16 -10 8 -3 12 -2 9 4 -6 10 -25 14 -25 6z"/>
<path d="M936 977 c3 -10 9 -15 12 -12 3 3 0 11 -7 18 -10 9 -11 8 -5 -6z"/>
<path d="M1845 970 c-3 -5 -2 -10 4 -10 5 0 13 5 16 10 3 6 2 10 -4 10 -5 0
-13 -4 -16 -10z"/>
<path d="M2945 973 c-11 -3 -24 -10 -30 -15 -7 -8 -5 -9 8 -5 13 5 17 1 17
-17 0 -26 9 -38 21 -30 5 3 4 14 -1 25 -6 10 -7 19 -2 19 5 0 9 7 9 15 0 8 -1
14 -1 14 -1 -1 -10 -3 -21 -6z"/>
<path d="M650 955 c-11 -13 -10 -14 4 -9 9 3 16 10 16 15 0 13 -6 11 -20 -6z"/>
<path d="M746 952 c-3 -5 1 -9 9 -9 8 0 15 4 15 9 0 4 -4 8 -9 8 -6 0 -12 -4
-15 -8z"/>
<path d="M784 938 l-19 -23 23 19 c21 18 27 26 19 26 -2 0 -12 -10 -23 -22z"/>
<path d="M690 946 c0 -2 8 -10 18 -17 15 -13 16 -12 3 4 -13 16 -21 21 -21 13z"/>
<path d="M880 922 c0 -12 -5 -22 -11 -22 -5 0 -7 -5 -4 -11 5 -6 13 -2 22 11
11 16 12 25 4 33 -8 8 -11 5 -11 -11z"/>
<path d="M2881 935 c-1 -5 8 -21 19 -35 14 -19 28 -25 59 -26 23 0 41 4 41 9
0 5 -14 7 -30 3 -22 -4 -32 -1 -36 9 -4 8 -12 15 -20 15 -7 0 -18 8 -23 18 -6
9 -10 13 -10 7z"/>
<path d="M2985 910 c3 -5 8 -10 11 -10 2 0 4 5 4 10 0 6 -5 10 -11 10 -5 0 -7
-4 -4 -10z"/>
<path d="M540 849 c-7 -24 -14 -46 -15 -49 -13 -60 -29 -110 -35 -110 -4 0 -5
11 -2 25 4 26 -12 35 -22 13 -3 -7 -3 -2 1 12 4 14 6 41 6 60 -1 19 4 44 10
55 9 18 8 18 -6 7 -16 -13 -42 -8 -33 7 8 13 -63 -1 -75 -15 -9 -11 -14 -11
-33 1 -32 21 -146 17 -146 -4 0 -14 1 -14 10 -1 5 8 10 12 10 8 0 -4 -15 -28
-33 -54 -27 -39 -32 -55 -33 -110 -1 -35 2 -64 7 -64 5 0 9 -6 9 -13 0 -21 41
-49 81 -54 28 -4 45 0 69 17 26 19 34 20 41 9 5 -8 9 -17 9 -21 0 -5 20 -8 44
-8 40 0 44 -2 42 -23 -2 -13 -7 -30 -11 -37 -6 -9 -4 -11 5 -5 10 6 11 4 5
-11 -12 -29 -11 -169 2 -289 4 -38 8 -45 14 -30 7 19 8 19 8 -2 1 -13 -4 -23
-10 -23 -5 0 -7 -5 -4 -10 4 -6 12 -7 18 -4 8 5 8 3 0 -7 -7 -7 -13 -18 -13
-23 0 -6 4 -5 9 3 6 10 13 -3 22 -43 7 -31 16 -56 21 -56 5 0 7 8 4 18 -21 70
-30 173 -30 343 -1 159 2 199 14 214 14 17 11 17 -59 13 l-74 -4 7 90 c3 49 6
109 6 133 0 44 0 44 32 41 l32 -3 -3 -92 -3 -93 45 0 c39 0 46 -3 50 -22 2
-13 5 -5 5 17 0 22 -2 34 -5 28 -7 -18 -23 -16 -23 3 0 9 12 54 26 100 14 47
24 90 22 96 -2 6 -10 -9 -18 -33z m-244 -7 c-3 -5 5 -8 17 -8 26 1 50 -43 42
-77 -6 -20 -12 -24 -38 -22 -18 2 -33 3 -33 4 -1 1 2 17 6 38 l9 36 -26 -26
c-34 -34 -46 -133 -18 -144 13 -4 25 2 41 23 22 26 25 27 40 13 15 -15 15 -19
-2 -44 -39 -59 -114 -65 -150 -10 -37 57 0 191 60 215 27 11 59 12 52 2z m-8
-131 c10 -6 10 -10 -3 -21 -8 -7 -15 -11 -16 -9 -8 42 -6 46 19 30z m169 -493
c-3 -7 -5 -2 -5 12 0 14 2 19 5 13 2 -7 2 -19 0 -25z"/>
<path d="M315 780 c3 -5 8 -10 11 -10 2 0 4 5 4 10 0 6 -5 10 -11 10 -5 0 -7
-4 -4 -10z"/>
<path d="M204 769 c-3 -6 -2 -15 3 -20 5 -5 9 -1 10 11 2 22 -2 25 -13 9z"/>
<path d="M503 819 c-2 -23 3 -25 10 -4 4 8 3 16 -1 19 -4 3 -9 -4 -9 -15z"/>
<path d="M1101 782 c-5 -10 -13 -41 -16 -68 -6 -39 -4 -53 8 -63 13 -10 17 -9
26 6 9 18 15 74 12 121 -1 27 -17 29 -30 4z"/>
<path d="M496 775 c-9 -26 -7 -32 5 -12 6 10 9 21 6 23 -2 3 -7 -2 -11 -11z"/>
<path d="M2970 734 c0 -8 5 -12 10 -9 6 4 8 11 5 16 -9 14 -15 11 -15 -7z"/>
<path d="M2985 710 c-3 -5 -1 -10 4 -10 6 0 11 5 11 10 0 6 -2 10 -4 10 -3 0
-8 -4 -11 -10z"/>
<path d="M1147 672 c6 -14 25 -12 30 4 2 5 -5 10 -16 10 -11 0 -17 -5 -14 -14z"/>
<path d="M1135 630 c3 -5 8 -10 11 -10 2 0 4 5 4 10 0 6 -5 10 -11 10 -5 0 -7
-4 -4 -10z"/>
<path d="M583 583 c-7 -2 -13 -9 -13 -14 0 -6 4 -8 9 -5 5 4 12 0 14 -6 3 -7
6 -3 6 10 1 12 0 22 -1 21 -2 0 -9 -3 -15 -6z"/>
<path d="M767 534 c-16 -22 -45 -25 -32 -4 3 4 -6 7 -20 6 -14 0 -27 -7 -30
-13 -7 -19 -23 -16 -28 5 -3 12 -5 13 -6 2 0 -8 4 -22 9 -30 8 -13 11 -12 23
4 14 19 54 18 50 -1 -1 -6 5 -17 15 -25 15 -11 15 -11 6 2 -18 23 9 45 27 23
11 -13 9 -19 -12 -37 -29 -25 -43 -63 -24 -63 7 0 11 6 8 14 -3 7 0 13 6 13 6
0 11 -5 11 -11 0 -5 5 -7 11 -4 6 5 4 11 -7 19 -13 10 -14 15 -4 21 7 4 16 2
21 -6 4 -7 12 -10 16 -5 4 5 3 11 -3 13 -13 4 -7 43 7 43 15 0 10 26 -8 43
-17 14 -20 13 -36 -9z m35 -11 c-6 -2 -9 -10 -5 -16 4 -7 -1 -6 -10 2 -22 18
-21 21 6 20 12 0 16 -3 9 -6z"/>
<path d="M545 530 c-3 -5 1 -10 9 -10 9 0 16 5 16 10 0 6 -4 10 -9 10 -6 0
-13 -4 -16 -10z"/>
<path d="M1075 531 c-3 -5 -1 -12 4 -15 5 -3 11 1 15 9 6 16 -9 21 -19 6z"/>
<path d="M1875 530 c-3 -6 1 -7 9 -4 18 7 21 14 7 14 -6 0 -13 -4 -16 -10z"/>
<path d="M2095 531 c-3 -5 -2 -12 3 -15 5 -3 9 1 9 9 0 17 -3 19 -12 6z"/>
<path d="M2969 513 c-12 -16 -12 -17 2 -6 9 7 19 10 22 6 4 -3 7 -1 7 5 0 17
-16 15 -31 -5z"/>
<path d="M688 491 c-10 -10 -18 -26 -18 -37 1 -17 2 -17 20 5 22 25 26 21 10
-9 -7 -13 -7 -21 0 -25 7 -4 6 -13 -1 -27 -9 -16 -8 -19 3 -16 8 3 12 17 10
37 -1 17 3 31 9 31 6 0 8 9 4 23 -11 33 -18 37 -37 18z"/>
<path d="M1820 501 c0 -5 7 -12 16 -15 14 -5 15 -4 4 9 -14 17 -20 19 -20 6z"/>
<path d="M2926 496 c6 -16 4 -18 -12 -12 -15 6 -17 5 -6 -5 9 -10 15 -10 24
-1 9 9 9 15 -1 25 -10 10 -11 8 -5 -7z"/>
<path d="M2034 492 c-6 -4 -13 -19 -16 -35 -4 -22 -3 -25 8 -16 10 8 14 8 14
1 0 -15 27 -4 34 13 2 7 -1 16 -9 19 -9 3 -12 0 -8 -10 3 -7 1 -14 -4 -14 -18
0 -22 12 -12 31 11 21 10 22 -7 11z"/>
<path d="M566 467 c3 -10 9 -15 12 -12 3 3 0 11 -7 18 -10 9 -11 8 -5 -6z"/>
<path d="M2090 430 c-10 -6 -11 -10 -3 -10 10 0 10 -6 1 -25 -11 -24 -19 -29
-45 -26 -7 1 -13 -3 -13 -9 0 -6 5 -8 10 -5 15 10 12 -12 -5 -28 -13 -13 -13
-16 1 -27 12 -11 13 -10 8 4 -7 19 12 22 19 4 3 -7 3 2 0 20 -5 27 -2 32 13
32 15 0 16 -2 5 -9 -9 -6 -10 -11 -2 -15 6 -4 11 -2 11 5 0 8 4 9 13 0 8 -6
24 -8 38 -5 13 3 50 5 82 5 39 -1 57 3 57 12 0 8 -15 11 -50 9 -46 -4 -50 -2
-50 18 0 18 3 20 13 11 8 -6 17 -8 20 -4 4 3 7 0 7 -7 0 -9 5 -7 14 5 14 19
15 19 34 2 13 -12 22 -15 27 -8 9 16 22 13 22 -4 0 -8 -7 -15 -14 -15 -8 0
-12 -4 -9 -8 3 -5 121 -8 263 -8 257 1 258 1 261 23 2 13 -4 25 -15 30 -10 5
-94 8 -188 6 -338 -5 -444 -1 -456 18 -6 10 -9 10 -9 2 0 -7 -5 -13 -11 -13
-5 0 -7 6 -3 13 4 6 -3 3 -15 -8 -16 -14 -22 -15 -19 -5 2 8 8 18 13 22 15 12
-7 10 -25 -2z m64 -36 c9 -3 16 -14 16 -23 0 -14 -2 -14 -10 -1 -9 13 -10 13
-10 0 0 -12 -2 -12 -9 -2 -6 10 -10 8 -14 -8 -3 -12 -10 -19 -16 -15 -17 10
-13 43 7 48 9 3 18 5 19 6 1 0 8 -2 17 -5z m313 -26 c-3 -7 -5 -2 -5 12 0 14
2 19 5 13 2 -7 2 -19 0 -25z m46 2 c7 0 6 4 -3 10 -15 10 -12 11 23 14 20 2
14 -29 -8 -35 -29 -8 -45 0 -45 25 1 19 2 19 11 4 5 -10 15 -18 22 -18z m237
17 c8 0 18 -5 22 -11 5 -7 8 -4 8 6 0 11 5 15 15 12 8 -4 15 -14 14 -23 0 -12
-2 -12 -6 -2 -4 10 -7 10 -13 1 -11 -18 -61 -20 -67 -3 -5 12 -7 12 -14 1 -7
-10 -9 -8 -10 7 0 20 0 20 -9 0 -8 -19 -9 -19 -9 3 -1 20 2 22 26 16 15 -4 34
-7 43 -7z m-350 -12 c0 -8 -4 -15 -10 -15 -5 0 -10 6 -10 13 0 8 -3 8 -8 2 -6
-10 -19 -11 -45 -7 -21 4 6 19 38 20 25 1 35 -3 35 -13z m17 -7 c-3 -8 -6 -5
-6 6 -1 11 2 17 5 13 3 -3 4 -12 1 -19z m30 7 c0 -8 -4 -15 -9 -15 -4 0 -8 7
-8 15 0 8 4 15 8 15 5 0 9 -7 9 -15z m193 0 c0 -8 -7 -15 -15 -15 -8 0 -15 6
-15 13 0 8 -3 8 -8 2 -6 -10 -19 -11 -45 -7 -23 5 7 19 43 20 29 1 40 -2 40
-13z m30 0 c0 -8 -4 -15 -10 -15 -5 0 -10 7 -10 15 0 8 5 15 10 15 6 0 10 -7
10 -15z"/>
<path d="M817 415 c-4 -8 -1 -17 5 -21 7 -5 8 -2 3 6 -6 9 -2 10 16 5 21 -7
22 -6 7 9 -20 20 -24 20 -31 1z"/>
<path d="M1120 419 c0 -5 5 -7 10 -4 6 3 10 8 10 11 0 2 -4 4 -10 4 -5 0 -10
-5 -10 -11z"/>
<path d="M515 389 c-4 -12 -2 -26 4 -32 8 -8 11 -2 11 21 0 37 -6 41 -15 11z"/>
<path d="M712 378 c-16 -16 -15 -33 1 -20 10 8 13 6 14 -9 3 -31 24 -53 35
-37 7 9 8 4 4 -14 -3 -15 -1 -30 5 -33 6 -4 9 0 7 10 -2 10 2 20 9 22 9 3 10
-4 3 -26 -5 -17 -6 -31 -2 -32 4 0 17 -2 29 -5 17 -3 20 0 15 18 -3 13 -7 17
-10 10 -2 -7 -8 -10 -12 -7 -5 3 -7 12 -4 20 3 8 -7 31 -23 52 -15 20 -21 33
-13 28 13 -8 13 -7 0 9 -14 18 -15 18 -21 -5 -7 -23 -7 -23 -8 4 -1 29 -10 34
-29 15z"/>
<path d="M1078 347 c-21 -49 -22 -57 -8 -57 5 0 7 7 3 16 -5 14 -3 14 15 3
l22 -14 -23 -12 c-16 -9 -18 -12 -6 -13 31 0 41 25 18 48 -11 12 -15 22 -9 22
6 0 8 5 5 10 -3 6 -1 10 5 10 7 0 10 -7 6 -15 -7 -19 8 -19 24 0 16 19 6 45
-17 45 -12 0 -24 -15 -35 -43z m52 16 c0 -10 -4 -14 -8 -8 -4 6 -11 13 -16 18
-5 4 -2 7 7 7 10 0 17 -8 17 -17z"/>
<path d="M799 353 c-6 -7 -7 -13 -2 -13 5 0 17 6 27 13 16 12 17 14 2 14 -9 0
-21 -6 -27 -14z"/>
<path d="M545 345 c-3 -8 -7 -22 -10 -31 -3 -8 -1 -13 4 -10 5 3 11 17 13 31
6 27 0 34 -7 10z"/>
<path d="M810 330 c-13 -9 -13 -10 0 -10 8 0 22 5 30 10 13 9 13 10 0 10 -8 0
-22 -5 -30 -10z"/>
<path d="M875 320 c3 -5 8 -10 11 -10 2 0 4 5 4 10 0 6 -5 10 -11 10 -5 0 -7
-4 -4 -10z"/>
<path d="M2102 274 c10 -10 20 -16 22 -13 3 3 -5 11 -17 18 -21 13 -21 12 -5
-5z"/>
<path d="M2150 266 c-7 -14 -19 -26 -27 -26 -7 0 -14 -3 -14 -7 -9 -59 -7 -69
18 -87 39 -29 88 -29 122 0 16 13 34 24 39 24 6 0 16 8 21 18 9 15 10 15 11
-4 0 -43 17 -46 256 -47 253 0 244 -3 244 74 0 54 -20 80 -45 59 -11 -10 -18
-10 -29 -1 -11 10 -17 7 -29 -10 -9 -12 -13 -28 -10 -35 3 -8 0 -14 -6 -14 -6
0 -11 4 -11 9 0 5 -3 17 -6 26 -4 9 -2 15 4 13 5 -2 10 2 11 7 1 6 -64 10
-174 11 -157 1 -176 0 -191 -17 -13 -14 -21 -16 -36 -8 -11 6 -26 8 -34 5 -8
-3 -23 3 -34 14 -16 16 -25 18 -39 10 -14 -7 -20 -7 -23 1 -2 6 -10 -1 -18
-15z m70 -16 c0 -11 5 -20 11 -20 5 0 7 -4 4 -10 -3 -5 3 -10 13 -10 16 0 19
5 15 23 -4 20 -3 21 10 5 8 -10 16 -15 19 -12 4 3 9 1 13 -5 3 -6 0 -11 -8
-11 -8 0 -22 -11 -31 -25 -9 -13 -32 -28 -52 -34 -73 -20 -117 27 -70 74 14
14 30 25 36 25 5 0 10 5 10 10 0 6 7 10 15 10 8 0 15 -9 15 -20z m177 1 c10 9
14 7 20 -7 6 -16 7 -16 14 2 7 17 8 17 8 2 1 -10 0 -21 -1 -25 -5 -12 -50 -9
-55 4 -3 7 -13 13 -22 13 -13 0 -13 -2 -2 -9 9 -6 10 -11 2 -15 -6 -4 -14 0
-18 9 -7 20 17 39 31 25 6 -6 15 -5 23 1z m73 -1 c0 13 1 13 10 0 5 -8 10 -22
10 -30 0 -13 -1 -13 -10 0 -9 13 -10 13 -10 0 0 -13 -1 -13 -10 0 -5 8 -10 22
-10 30 0 13 1 13 10 0 9 -13 10 -13 10 0z m88 -12 c2 -8 -4 -18 -13 -21 -10
-4 -15 0 -16 11 0 10 -3 12 -6 5 -2 -7 -9 -13 -14 -13 -4 0 -5 7 -2 17 4 11 3
14 -5 9 -7 -4 -12 -2 -12 4 0 18 64 6 68 -12z m58 3 c14 -11 21 -22 15 -25 -5
-3 -14 1 -21 9 -7 8 -18 15 -24 15 -6 0 -5 -4 3 -9 8 -5 9 -11 3 -15 -14 -8
-25 11 -18 29 7 19 13 19 42 -4z m58 1 c5 -8 4 -18 -3 -25 -7 -7 -12 -6 -17 6
-3 9 -13 17 -21 17 -8 0 -12 4 -9 9 8 13 40 8 50 -7z m126 -2 c0 -11 -7 -20
-15 -20 -18 0 -19 12 -3 28 16 16 18 15 18 -8z m-50 -10 c0 -13 -5 -18 -15
-14 -16 7 -19 17 -8 27 12 13 23 7 23 -13z m-370 -41 c0 -5 -4 -7 -10 -4 -5 3
-10 1 -10 -4 0 -19 30 -12 31 7 1 16 2 16 6 0 5 -21 20 -24 25 -5 2 9 7 8 19
-4 15 -15 13 -17 -33 -18 -59 -1 -74 5 -57 25 14 17 29 18 29 3z m90 -1 c0 -8
3 -9 8 -3 4 6 19 11 35 12 19 1 27 -3 28 -15 0 -14 2 -13 9 3 5 11 9 17 9 13
1 -3 3 -12 6 -20 4 -9 -4 -14 -25 -14 -20 -1 -30 3 -30 13 0 8 -5 11 -10 8 -6
-4 -8 -10 -6 -14 3 -4 -1 -8 -9 -8 -8 0 -17 7 -19 14 -3 8 -10 11 -16 8 -5 -3
-10 -1 -10 4 0 6 7 11 15 11 8 0 15 -6 15 -12z m140 1 c0 -6 -4 -7 -10 -4 -6
3 -7 -1 -4 -9 3 -9 1 -16 -5 -16 -6 0 -11 2 -11 4 0 2 -2 11 -5 18 -4 9 2 14
15 15 11 1 20 -3 20 -8z m23 -9 c-3 -11 -9 -20 -14 -20 -11 0 -11 3 -3 24 9
23 23 20 17 -4z m67 8 c0 -5 -4 -6 -10 -3 -6 3 -7 -1 -4 -9 3 -9 1 -16 -5 -16
-6 0 -11 8 -11 17 0 15 -2 14 -15 -3 -12 -15 -14 -16 -15 -3 0 9 2 18 5 21 10
9 55 6 55 -4z m23 -8 c-3 -11 -9 -20 -14 -20 -11 0 -11 3 -3 24 9 23 23 20 17
-4z m34 0 c1 -11 -4 -20 -12 -20 -8 0 -11 7 -8 20 3 11 8 20 12 20 4 0 7 -9 8
-20z m33 8 c0 6 4 12 9 12 5 0 7 -8 4 -18 -6 -26 -33 -24 -33 2 0 17 2 18 10
6 6 -10 10 -11 10 -2z"/>
<path d="M2156 181 c-3 -5 1 -11 9 -14 9 -4 12 -1 8 9 -6 16 -10 17 -17 5z"/>
<path d="M557 273 c-11 -10 -8 -45 2 -38 6 3 9 14 8 25 -1 23 -1 22 -10 13z"/>
<path d="M876 252 c-3 -5 1 -9 9 -9 8 0 12 4 9 9 -3 4 -7 8 -9 8 -2 0 -6 -4
-9 -8z"/>
<path d="M933 213 c-7 -3 -13 -12 -13 -21 0 -15 2 -15 10 -2 7 11 12 12 20 4
9 -9 4 -14 -19 -22 -17 -6 -31 -7 -33 -2 -2 6 -9 5 -18 0 -12 -8 -12 -10 5
-11 61 -4 60 -3 59 -36 0 -32 0 -32 18 -13 19 20 24 35 9 26 -5 -3 -8 6 -8 19
0 14 3 25 8 25 5 0 6 7 3 15 -4 8 -10 13 -14 10 -5 -3 -10 -1 -12 3 -1 5 -9 7
-15 5z"/>
<path d="M720 155 c0 -8 8 -15 18 -14 10 0 12 3 4 6 -6 2 -10 9 -6 14 3 5 0 9
-5 9 -6 0 -11 -7 -11 -15z"/>
<path d="M835 150 c5 -15 3 -18 -8 -14 -12 4 -13 -1 -3 -38 l11 -43 3 33 c2
18 7 30 12 27 4 -3 6 -15 3 -28 -4 -19 -3 -20 7 -4 6 9 8 23 3 30 -8 13 -10
18 -12 42 0 8 -6 15 -12 15 -6 0 -8 -9 -4 -20z"/>
<path d="M590 151 c0 -5 7 -11 14 -14 10 -4 13 -1 9 9 -6 15 -23 19 -23 5z"/>
<path d="M589 88 c-3 -35 -1 -44 13 -44 13 0 15 7 11 36 -8 53 -20 57 -24 8z"/>
<path d="M716 97 c3 -10 9 -15 12 -12 3 3 0 11 -7 18 -10 9 -11 8 -5 -6z"/>
<path d="M800 82 c0 -11 8 -26 18 -33 15 -13 16 -12 4 3 -8 9 -11 22 -8 27 4
5 2 12 -4 16 -5 3 -10 -3 -10 -13z"/>
<path d="M555 81 c-3 -5 -1 -12 5 -16 5 -3 10 1 10 9 0 18 -6 21 -15 7z"/>
<path d="M883 49 c-7 -13 -12 -18 -12 -11 -1 6 -6 12 -12 12 -8 0 -7 -5 1 -16
12 -13 15 -13 28 0 8 8 12 20 10 26 -2 7 -9 2 -15 -11z"/>
<path d="M601 14 c0 -11 3 -14 6 -6 3 7 2 16 -1 19 -3 4 -6 -2 -5 -13z"/>
</g>
</svg>
